# xmcd
#
# Track frame offsets:
#	150
#	13320
#	29543
#	50790
#	66706
#	83332
#	99625
#	116675
#	135676
#	147393
#
# Disc length: 2194 seconds
#
# Revision: 1
# Processed by: cddbd v1.5.2PL0 Copyright (c) Steve Scherf et al.
# Submitted via: EZCDAudioConverter 2.0.7.1
#
DISCID=9608900a
DTITLE=Ronny Nilsen - Fra Meg Til Deg
DYEAR=2014
DGENRE=Country
TTITLE0=Tom For Cash
TTITLE1=På tro og ære
TTITLE2=Det Er Du
TTITLE3=For Den Du Var
TTITLE4=Full Pott
TTITLE5=Samme Hva Det Er
TTITLE6=Bare La Meg Gå
TTITLE7=For En Gangs Skyld
TTITLE8=Can't get over you
TTITLE9=I Need To Know
EXTD=
EXTT0=
EXTT1=
EXTT2=
EXTT3=
EXTT4=
EXTT5=
EXTT6=
EXTT7=
EXTT8=
EXTT9=
PLAYORDER=
